<svg width="177" height="35" viewBox="0 0 177 35" fill="none" xmlns="http://www.w3.org/2000/svg">
<g id="Emerald Group 1" clip-path="url(#clip0_233_249)">
<g id="Group 378">
<g id="Group 10">
<path id="Path 19" d="M15.733 12.7761H16.4168L16.0046 18.4343H0.000732422V17.8171H0.399975C1.04152 17.8911 1.69019 17.7648 2.25957 17.455C2.53586 17.2206 2.72482 16.8969 2.79477 16.5378C2.89838 15.5972 2.93628 14.6503 2.90817 13.7042V4.78871C2.93342 3.87487 2.89286 2.96038 2.78714 2.05254C2.7664 1.86727 2.70587 1.68892 2.60974 1.53017C2.51361 1.37143 2.38435 1.23618 2.23105 1.13404C1.6466 0.909062 1.02001 0.819802 0.397322 0.872789V0.255615H14.2057L14.662 4.78802H13.9918C13.8174 3.81514 13.4356 2.89298 12.8733 2.08641C12.474 1.58181 11.9201 1.228 11.2999 1.08151C10.3303 0.913472 9.34644 0.844015 8.36328 0.874171H5.68497V8.50006H7.73656C8.40238 8.53683 9.06938 8.45926 9.70989 8.2706C9.87459 8.21582 10.0259 8.1258 10.1536 8.0066C10.2812 7.88739 10.3826 7.74176 10.4503 7.57948C10.6026 6.99172 10.6627 6.3832 10.6287 5.77633H11.2992V11.9965H10.6287C10.6779 11.3075 10.5855 10.6157 10.3572 9.96525C10.2779 9.80388 10.1665 9.661 10.0302 9.54562C9.89393 9.43023 9.73566 9.34485 9.56532 9.29485C8.98737 9.16925 8.3964 9.11747 7.80586 9.14073H5.68298V13.4444C5.68298 15.5988 5.83005 16.8659 6.12433 17.2456C6.41862 17.6252 7.21196 17.8153 8.50454 17.8157H9.94301C10.7937 17.8416 11.6422 17.7167 12.4509 17.4467C13.2008 17.127 13.8493 16.6028 14.3251 15.9317C15.0006 14.9885 15.4785 13.9138 15.7284 12.7747" fill="white"/>
<path id="Path 20" d="M36.6896 15.298L43.7287 0.256348H49.6573V0.874212H48.9447C48.3143 0.828302 47.6809 0.903567 47.0778 1.09607C46.9244 1.17881 46.7913 1.29596 46.6889 1.43868C46.5864 1.58139 46.5174 1.74594 46.4866 1.91989C46.3509 2.87 46.3006 3.83073 46.3364 4.79013V13.7057C46.3122 14.6434 46.35 15.5818 46.4498 16.5144C46.474 16.7103 46.5377 16.899 46.6371 17.0685C46.7366 17.238 46.8698 17.3847 47.0278 17.4992C47.58 17.7657 48.1921 17.8769 48.8008 17.8213H49.6573V18.4385H40.4214V17.8213H41.1051C41.6882 17.8681 42.2737 17.7664 42.8085 17.5255C42.968 17.4249 43.1048 17.2912 43.2101 17.1332C43.3154 16.9752 43.3868 16.7964 43.4197 16.6084C43.5419 15.6461 43.5871 14.6754 43.5553 13.7057V2.13276L35.9024 18.4343H35.2322L27.5242 2.13276V12.7761C27.4979 13.7703 27.5451 14.7651 27.6655 15.7521C27.7799 16.3103 28.0948 16.8052 28.5485 17.1399C29.1579 17.5766 29.884 17.813 30.6293 17.8172V18.4343H23.7172V17.8172C24.4362 17.8082 25.1372 17.5868 25.7349 17.1799C26.217 16.8547 26.5574 16.353 26.6856 15.779C26.8303 14.7583 26.8875 13.7267 26.8567 12.6959V4.78806C26.8871 3.85168 26.8418 2.91434 26.7211 1.98554C26.6953 1.80627 26.6307 1.63505 26.5321 1.48423C26.4334 1.3334 26.303 1.20673 26.1504 1.11334C25.5392 0.902721 24.8924 0.820661 24.249 0.87214H23.7221V0.256348H29.6073L36.6896 15.298Z" fill="white"/>
<path id="Path 21" d="M72.7095 12.7761H73.3929L72.9798 18.4343H56.9766V17.8171H57.3761C58.0177 17.8911 58.666 17.7648 59.2354 17.455C59.512 17.221 59.7009 16.8971 59.7699 16.5378C59.874 15.5973 59.9119 14.6503 59.8833 13.7042V4.78871C59.9086 3.87487 59.868 2.96038 59.7623 2.05254C59.7418 1.86737 59.6815 1.68908 59.5856 1.53034C59.4897 1.37159 59.3606 1.23629 59.2075 1.13404C58.623 0.909266 57.9965 0.820013 57.3738 0.872789V0.255615H71.1828L71.6381 4.78802H70.9683C70.7939 3.81503 70.4119 2.89282 69.8492 2.08641C69.4499 1.5814 68.8956 1.22751 68.2751 1.08151C67.3059 0.913463 66.3225 0.844006 65.3398 0.874171H62.6608V8.50006H64.7124C65.3784 8.53697 66.046 8.4594 66.6867 8.2706C66.8513 8.21558 67.0024 8.12547 67.1301 8.00629C67.2577 7.88712 67.3588 7.74161 67.4268 7.57948C67.5789 6.99167 67.6395 6.38322 67.6062 5.77633H68.2751V11.9965H67.6062C67.6561 11.3075 67.5633 10.6156 67.3343 9.96525C67.2552 9.80386 67.1442 9.66094 67.008 9.54554C66.8718 9.43014 66.7138 9.34478 66.5435 9.29485C65.9655 9.16932 65.3742 9.11755 64.7837 9.14073H62.6608V13.4444C62.6608 15.5988 62.8077 16.8659 63.1015 17.2456C63.3953 17.6252 64.1892 17.8153 65.4827 17.8157H66.9208C67.7717 17.8415 68.6208 17.7166 69.4297 17.4467C70.1794 17.1266 70.8278 16.6024 71.3039 15.9317C71.9788 14.9881 72.4563 13.9136 72.7069 12.7747" fill="white"/>
<path id="Path 22" d="M101.348 18.4343H96.1466C95.2249 17.8266 93.8138 16.2354 91.9141 13.6607C91.3061 12.8387 90.6743 12.0499 90.0187 11.2943C89.6136 10.7876 89.1584 10.3244 88.6605 9.91206C88.3063 9.72039 87.9064 9.63416 87.5062 9.66325H86.7376V13.698C86.7151 14.6356 86.7504 15.5737 86.8434 16.5068C86.865 16.7026 86.927 16.8916 87.0254 17.0613C87.1238 17.231 87.2564 17.3777 87.4144 17.4916C87.9668 17.7581 88.5795 17.8693 89.1884 17.8137H90.1139V18.4309H80.865V17.8137H81.4927C82.0806 17.8607 82.6707 17.7591 83.2107 17.5179C83.3701 17.4175 83.5066 17.2837 83.6109 17.1252C83.7153 16.9668 83.7852 16.7875 83.8159 16.5994C83.9311 15.6365 83.9738 14.6661 83.9435 13.6967V4.78114C83.9726 3.84549 83.9301 2.90896 83.8165 1.98C83.7926 1.80021 83.7289 1.62829 83.6302 1.4772C83.5315 1.32612 83.4005 1.19981 83.2469 1.1078C82.6326 0.89782 81.9832 0.815791 81.3372 0.8666H81.0092V0.249426L83.7744 0.115347C85.6166 0.0351765 87.0792 -0.00537133 88.1621 -0.00629283C89.6754 -0.044388 91.1872 0.118245 92.6592 0.477499C93.7142 0.742124 94.6809 1.28793 95.4599 2.05879C95.8031 2.4003 96.0749 2.80913 96.2584 3.26055C96.4419 3.71197 96.5335 4.19659 96.5276 4.68507C96.5305 5.26557 96.4064 5.83948 96.1649 6.36536C95.9233 6.89124 95.5701 7.35598 95.1306 7.72603C93.9557 8.66808 92.5242 9.21921 91.0308 9.30456C91.8384 9.67316 93.1403 10.996 94.9363 13.273C95.922 14.6347 97.0818 15.8565 98.3849 16.9063C99.2668 17.4924 100.295 17.8087 101.348 17.8178L101.348 18.4343ZM86.7409 9.05022C87.4526 9.03179 88.1887 9.00484 88.9493 8.96936C89.6181 8.94841 90.2823 8.84963 90.929 8.67494C91.4275 8.54609 91.8915 8.30573 92.2872 7.97137C92.6509 7.63878 92.9318 7.22308 93.1069 6.75845C93.3221 6.16666 93.4237 5.53837 93.4063 4.90761C93.461 3.78993 93.097 2.69275 92.3877 1.83763C91.7085 1.06864 90.2289 0.684142 87.9489 0.684142C87.5976 0.684142 87.1941 0.701884 86.7382 0.737362L86.7409 9.05022Z" fill="white"/>
<path id="Path 23" d="M119.836 11.7312H112.498L112 12.884C111.463 13.9083 111.088 15.0125 110.889 16.1558C110.876 16.3966 110.923 16.637 111.027 16.854C111.13 17.071 111.287 17.2575 111.481 17.3956C111.931 17.694 112.462 17.8419 112.999 17.8186V18.4358H107.255V17.8186C107.967 17.7593 108.64 17.4597 109.165 16.9671C109.809 16.1218 110.319 15.1786 110.675 14.1722C110.723 14.0377 110.951 13.5187 111.359 12.6151L116.973 0H117.528L123.984 14.4397L124.867 16.3431C125.045 16.7456 125.322 17.0944 125.672 17.3556C126.13 17.6398 126.652 17.7988 127.189 17.8172V18.4344H119.593V17.8172C120.229 17.853 120.866 17.7873 121.482 17.6223C121.636 17.5674 121.768 17.462 121.857 17.3227C121.945 17.1833 121.986 17.018 121.973 16.8524C121.829 16.2409 121.608 15.6505 121.318 15.0956L119.836 11.7312ZM119.595 11.1285L116.175 3.37891L112.77 11.1271L119.595 11.1285Z" fill="white"/>
<path id="Path 24" d="M150.23 13.085L150.086 18.4343H133.671V17.8171H134.241C134.829 17.8641 135.418 17.7625 135.958 17.5213C136.117 17.4205 136.255 17.2866 136.36 17.1283C136.465 16.9701 136.536 16.791 136.569 16.6028C136.69 15.6405 136.736 14.6698 136.705 13.7001V4.78456C136.734 3.84819 136.689 2.91094 136.569 1.98204C136.543 1.80277 136.479 1.63155 136.38 1.48072C136.282 1.3299 136.151 1.20323 135.999 1.10984C135.387 0.899576 134.741 0.817526 134.097 0.868639H133.671V0.251465H142.947V0.873474H142.092C141.461 0.827893 140.828 0.903151 140.225 1.09533C140.072 1.17828 139.939 1.2955 139.837 1.43819C139.734 1.58088 139.665 1.74532 139.634 1.91915C139.499 2.86936 139.449 3.83004 139.485 4.78939V14.3048C139.456 15.1288 139.494 15.9539 139.599 16.7715C139.639 16.939 139.716 17.0952 139.823 17.2287C139.93 17.3623 140.065 17.4698 140.219 17.5434C140.918 17.7822 141.657 17.8762 142.392 17.8199H143.859C144.75 17.8569 145.641 17.7571 146.503 17.5241C147.16 17.2653 147.729 16.818 148.141 16.2365C148.796 15.282 149.276 14.2151 149.558 13.0871L150.23 13.085Z" fill="white"/>
<path id="Path 25" d="M156.992 0.402143L160.17 0.25562C162.821 0.129374 164.607 0.0667155 165.528 0.067637C168.397 0.067637 170.635 0.478624 172.241 1.3006C173.74 2.023 174.989 3.18914 175.826 4.64635C176.63 6.1381 177.035 7.8185 177 9.51948C177.015 10.7675 176.798 12.0072 176.359 13.1728C175.975 14.2077 175.375 15.1454 174.599 15.9207C173.854 16.648 172.972 17.2137 172.006 17.5835C171.106 17.9421 170.165 18.1809 169.205 18.294C168.321 18.3862 167.076 18.4322 165.47 18.4322H156.907V17.8151H157.704C158.292 17.8621 158.883 17.7604 159.423 17.5193C159.582 17.4184 159.718 17.2847 159.824 17.1267C159.929 16.9687 160.001 16.79 160.034 16.6021C160.155 15.6397 160.2 14.6691 160.17 13.6994V4.93386C160.198 3.99542 160.153 3.05617 160.034 2.12512C160.009 1.94576 159.945 1.77437 159.846 1.62355C159.748 1.47273 159.617 1.34632 159.464 1.25361C158.851 1.0495 158.205 0.970123 157.563 1.02001H156.992V0.402143ZM162.949 0.777424V12.924C162.925 14.0822 162.96 15.241 163.055 16.3955C163.069 16.6164 163.135 16.8307 163.246 17.0209C163.358 17.2111 163.512 17.3717 163.696 17.4895C164.418 17.7602 165.188 17.8675 165.954 17.804C167.364 17.8489 168.771 17.6285 170.102 17.1537C171.27 16.643 172.229 15.7384 172.819 14.5923C173.599 13.0945 173.975 11.4131 173.909 9.71921C173.931 8.32051 173.716 6.92844 173.275 5.60356C172.909 4.48886 172.286 3.4797 171.458 2.66074C170.721 1.93627 169.821 1.40683 168.836 1.11884C167.628 0.817217 166.387 0.679642 165.144 0.709694C164.42 0.709694 163.688 0.73273 162.95 0.778805" fill="white"/>
</g>
<path id="Rectangle 11" d="M174.392 30.2554H140.374V31.1068H174.392V30.2554Z" fill="white"/>
<path id="Rectangle 12" d="M35.1644 30.2554H1.14575V31.1068H35.1644V30.2554Z" fill="white"/>
<g id="Group 11">
<path id="Path 26" d="M51.1771 34.8465H48.9869C48.8801 34.7214 48.7806 34.5901 48.6888 34.4532C48.5701 34.2818 48.4403 34.0805 48.2995 33.8492C48.1587 33.6179 48.0416 33.4264 47.9483 33.2749L47.3949 32.3418C47.2249 32.0444 47.0364 31.7584 46.8305 31.4855C46.7202 31.343 46.5684 31.2399 46.3968 31.1911C46.1231 31.1385 45.8445 31.1169 45.5661 31.1268H45.2584V33.2997C45.2525 33.4869 45.277 33.6737 45.331 33.8526C45.361 33.9281 45.4069 33.996 45.4656 34.0513C45.5243 34.1066 45.5943 34.148 45.6706 34.1726C45.9221 34.2577 46.187 34.2951 46.4518 34.2832V34.8479H42.3486V34.2832C42.685 34.3273 43.0258 34.249 43.3109 34.0621C43.475 33.8457 43.5515 33.5737 43.5248 33.3018V28.0493C43.5511 27.7783 43.4769 27.5072 43.3169 27.289C43.0315 27.0979 42.6879 27.0181 42.3493 27.0644V26.488L44.2434 26.4258C44.388 26.4182 44.5544 26.4113 44.7404 26.4071C44.9265 26.403 45.1011 26.4016 45.2627 26.4016C45.3868 26.4016 45.5936 26.4058 45.8838 26.4141C46.2913 26.4256 46.6715 26.4502 47.0241 26.488C47.3069 26.5113 47.5873 26.5575 47.8628 26.6262C48.1684 26.7052 48.4591 26.8356 48.7226 27.0119C48.9953 27.1938 49.2225 27.438 49.3861 27.7251C49.5616 28.0364 49.6503 28.3905 49.6428 28.7494C49.6426 29.0295 49.5818 29.3061 49.4644 29.5594C49.3333 29.8373 49.1362 30.0777 48.891 30.2588C48.578 30.4867 48.2246 30.6509 47.8505 30.7426C48.1364 30.9126 48.3896 31.1342 48.5976 31.3964C48.8022 31.6567 49.1236 32.1347 49.5619 32.8305C49.7547 33.1414 49.9644 33.4414 50.1896 33.7289C50.3127 33.8968 50.4676 34.0378 50.6452 34.1436C50.8111 34.2226 50.99 34.2695 51.1728 34.2818L51.1771 34.8465ZM47.7868 28.7383C47.8206 28.4836 47.7826 28.2244 47.6774 27.9907C47.5722 27.7571 47.4042 27.5586 47.1926 27.4183C46.7089 27.1819 46.1755 27.0701 45.6394 27.0927C45.5511 27.0927 45.4811 27.0927 45.4308 27.0927C45.3806 27.0927 45.3236 27.0927 45.2591 27.0927V30.4482H45.6394C46.1649 30.4648 46.6873 30.3619 47.1687 30.1468C47.5798 29.9446 47.7864 29.4751 47.7868 28.7383Z" fill="white"/>
<path id="Path 27" d="M58.8252 32.1077L58.7572 34.8466H51.4697V34.282C51.8091 34.3257 52.1529 34.2475 52.4416 34.0608C52.6076 33.8454 52.6851 33.573 52.6582 33.3006V28.0701C52.6649 27.8833 52.6419 27.6966 52.5902 27.5172C52.5603 27.4448 52.516 27.3795 52.4599 27.3256C52.4037 27.2717 52.337 27.2303 52.2642 27.2042C52.0093 27.1157 51.7401 27.0774 51.4711 27.0915V26.5269H58.2582L58.3666 28.6873H57.8112C57.7344 28.3196 57.5883 27.9706 57.3808 27.6596C57.246 27.4724 57.0519 27.3382 56.8313 27.2795C56.5301 27.2241 56.2238 27.2009 55.9178 27.2104H54.3851V30.1504H55.2178C55.4332 30.1598 55.6486 30.1341 55.8561 30.0744C55.9237 30.0511 55.9853 30.0128 56.0365 29.9622C56.0877 29.9117 56.1273 29.8501 56.1522 29.7821C56.2221 29.5638 56.2605 29.3363 56.2663 29.1068H56.8456V31.8755H56.2908C56.2886 31.6441 56.2476 31.4149 56.1698 31.1975C56.1423 31.1296 56.101 31.0685 56.0484 31.0184C55.9958 30.9682 55.9333 30.93 55.865 30.9065C55.6582 30.8483 55.4437 30.8234 55.2294 30.8326H54.3845V32.7905C54.3845 33.1188 54.3927 33.3573 54.409 33.5086C54.4197 33.6439 54.4643 33.774 54.5387 33.8867C54.6256 33.9968 54.7467 34.0736 54.8822 34.1044C55.1047 34.157 55.333 34.1803 55.5613 34.1735H56.2182C56.4864 34.1749 56.7536 34.1386 57.012 34.0657C57.3079 33.9619 57.5657 33.7691 57.7515 33.5128C58.0368 33.0999 58.2115 32.6185 58.2582 32.116L58.8252 32.1077Z" fill="white"/>
<path id="Path 28" d="M65.8225 32.4586C65.8185 32.7394 65.7639 33.017 65.661 33.2776C65.5447 33.5806 65.3784 33.861 65.1692 34.107C64.9406 34.3785 64.6585 34.598 64.3409 34.7511C63.9785 34.9232 63.5821 35.0084 63.1823 34.9999C62.7358 34.997 62.2946 34.8988 61.8877 34.7117C61.4619 34.5195 61.0891 34.2241 60.8014 33.8512C60.6829 34.1195 60.5996 34.4026 60.5541 34.693H59.9993V31.8442H60.5541C60.6504 32.2433 60.7897 32.6304 60.9695 32.9984C61.1488 33.3613 61.4057 33.6789 61.7209 33.928C62.0617 34.1937 62.4823 34.3314 62.9114 34.3177C63.2716 34.3353 63.6245 34.2116 63.8979 33.9722C64.0179 33.8642 64.1134 33.7308 64.1774 33.5813C64.2415 33.4318 64.2728 33.2699 64.2689 33.1069C64.2727 32.9281 64.2336 32.7512 64.1549 32.5913C64.0725 32.4372 63.9592 32.3023 63.8226 32.1953C63.6362 32.0519 63.4373 31.9263 63.2284 31.82C62.9758 31.688 62.6905 31.547 62.3679 31.3998C61.9398 31.2017 61.532 30.9612 61.1503 30.6817C60.8774 30.4846 60.6344 30.2478 60.429 29.9789C60.2814 29.7836 60.1666 29.5648 60.0895 29.3313C60.0272 29.13 59.9958 28.9203 59.996 28.7093C59.9999 28.3223 60.1014 27.9429 60.2911 27.6076C60.4962 27.2372 60.7955 26.9296 61.1572 26.7167C61.5572 26.4807 62.0131 26.3612 62.4753 26.3712C62.854 26.3706 63.2276 26.4598 63.5666 26.6317C63.9112 26.8048 64.2169 27.0483 64.4649 27.3471C64.5552 27.1131 64.6222 26.8704 64.6642 26.6228H65.2306V28.9429H64.6642C64.2622 27.6781 63.5622 27.0457 62.5649 27.0457C62.2489 27.0302 61.9387 27.1344 61.6937 27.3381C61.5872 27.4304 61.5022 27.5459 61.4454 27.676C61.3886 27.8062 61.3612 27.9477 61.3655 28.09C61.3604 28.3175 61.4325 28.5397 61.5694 28.7196C61.7184 28.9078 61.9031 29.0634 62.1126 29.1772C62.3349 29.3043 62.6956 29.4863 63.1946 29.7231C63.6787 29.9499 64.1509 30.2022 64.6091 30.4792C64.9448 30.6882 65.2377 30.9611 65.4716 31.283C65.712 31.6252 65.8351 32.0382 65.8225 32.4586Z" fill="white"/>
<path id="Path 29" d="M74.7735 28.8855H74.2002C74.1829 28.4824 74.0677 28.09 73.8653 27.7431C73.7375 27.5322 73.5427 27.3723 73.3132 27.2897C73.0918 27.2289 72.8633 27.1999 72.634 27.2033H71.5978V33.299C71.5903 33.4894 71.6146 33.6796 71.6698 33.8616C71.7014 33.9349 71.7481 34.0005 71.8067 34.0539C71.8653 34.1073 71.9343 34.1473 72.0093 34.1712C72.2598 34.2565 72.5237 34.294 72.7876 34.2818V34.8465H68.6851V34.2818C69.0242 34.3258 69.3679 34.2476 69.6563 34.0607C69.8229 33.8455 69.9008 33.5729 69.8735 33.3004V27.2047H69.0011C68.7155 27.1989 68.4302 27.2267 68.1509 27.2876C67.9041 27.3588 67.6923 27.5209 67.5566 27.7424C67.358 28.0897 67.2567 28.4858 67.2638 28.8876H66.6912V26.5239H74.7728L74.7735 28.8855Z" fill="white"/>
<path id="Path 30" d="M82.5924 34.8466H78.738V34.2819C78.9774 34.2924 79.217 34.2692 79.4502 34.2128C79.5203 34.1931 79.5814 34.1487 79.6223 34.0876C79.6632 34.0265 79.6813 33.9525 79.6737 33.879C79.6729 33.7504 79.6485 33.6231 79.6018 33.5037L79.2161 32.5216H76.5607L76.3624 33.0614C76.2722 33.27 76.2151 33.4918 76.1933 33.7186C76.1806 33.8174 76.2016 33.9176 76.2526 34.0026C76.3037 34.0876 76.3817 34.1523 76.4738 34.1859C76.6852 34.2551 76.9063 34.2883 77.1284 34.284V34.8486H74.3121V34.284C74.5103 34.2904 74.7071 34.2462 74.8841 34.1554C75.0735 34.0356 75.2285 33.8674 75.3341 33.6675C75.5156 33.3426 75.6702 33.0027 75.796 32.6516L78.154 26.3623H78.7264L81.218 32.8451C81.3991 33.3058 81.5317 33.6161 81.6159 33.776C81.695 33.9321 81.8164 34.0618 81.9657 34.1499C82.16 34.2482 82.3758 34.2937 82.5924 34.2819V34.8466ZM78.9979 31.9183L77.8702 29.0155L76.7958 31.9183H78.9979Z" fill="white"/>
<path id="Path 31" d="M91.2017 27.0865C90.9329 27.0685 90.6634 27.1127 90.4138 27.2157C90.341 27.2507 90.2768 27.3019 90.2261 27.3656C90.1755 27.4292 90.1395 27.5037 90.121 27.5834C90.078 27.8267 90.06 28.0738 90.067 28.3209V31.3901C90.0736 31.8158 90.0543 32.2414 90.0093 32.6646C89.9641 32.9691 89.8606 33.2616 89.7049 33.5257C89.4308 34.058 88.9746 34.4698 88.4226 34.6834C87.9179 34.8856 87.3812 34.9929 86.8389 34.9999C86.4494 34.9978 86.0619 34.9472 85.6846 34.8492C85.2906 34.7499 84.9163 34.5827 84.5777 34.3551C84.242 34.1327 83.9728 33.8207 83.7994 33.4532C83.7054 33.2554 83.6307 33.0487 83.5766 32.836C83.5266 32.6452 83.495 32.4498 83.4828 32.2527C83.4733 32.0684 83.4685 31.8299 83.4685 31.5374L83.4562 28.0686C83.4825 27.7976 83.4084 27.5264 83.248 27.3083C82.9591 27.1195 82.6138 27.0412 82.2734 27.0872V26.5225H86.3995V27.0872C86.134 27.0742 85.8686 27.1105 85.6159 27.1943C85.5416 27.2188 85.4731 27.2587 85.4147 27.3115C85.3562 27.3643 85.309 27.4289 85.2764 27.5012C85.2167 27.6839 85.1901 27.8762 85.1981 28.0686V31.5374C85.1955 31.8503 85.2128 32.1631 85.2499 32.4738C85.2774 32.7133 85.3307 32.949 85.4087 33.1767C85.5494 33.5122 85.7947 33.7914 86.1064 33.9715C86.4334 34.1697 86.8075 34.2725 87.188 34.2687C87.6017 34.2707 88.0087 34.1617 88.3679 33.9528C88.703 33.7728 88.9693 33.4841 89.1249 33.1325C89.2364 32.8738 89.3107 32.6 89.3451 32.3197C89.3823 31.9866 89.3994 31.6515 89.3965 31.3162V28.3195C89.3996 28.1185 89.3912 27.9175 89.3713 27.7175C89.3577 27.5925 89.3121 27.4733 89.239 27.3719C89.1474 27.2594 89.0207 27.1823 88.8798 27.1535C88.6535 27.102 88.4217 27.0788 88.1898 27.0844V26.5198H91.2004L91.2017 27.0865Z" fill="white"/>
<path id="Path 32" d="M100.545 34.8465H98.3541C98.2474 34.7214 98.1479 34.5901 98.056 34.4532C97.937 34.2818 97.8071 34.0805 97.6667 33.8492C97.5255 33.6183 97.4103 33.4262 97.3172 33.2749L96.7615 32.3418C96.5924 32.0442 96.4046 31.7582 96.1987 31.4855C96.0882 31.3427 95.9356 31.2396 95.7634 31.1911C95.4902 31.1385 95.2119 31.1169 94.934 31.1268H94.6266V33.2997C94.6204 33.4868 94.6447 33.6737 94.6986 33.8526C94.729 33.9279 94.7749 33.9955 94.8336 34.0507C94.8922 34.106 94.9621 34.1476 95.0382 34.1726C95.2897 34.2576 95.5543 34.295 95.8191 34.2832V34.8479H91.7172V34.2832C92.0536 34.327 92.3943 34.2487 92.6795 34.0621C92.8433 33.8456 92.9196 33.5736 92.8927 33.3018V28.0493C92.9186 27.7784 92.8444 27.5074 92.6848 27.289C92.3991 27.0979 92.0554 27.0181 91.7166 27.0644V26.488L93.6106 26.4258C93.7553 26.4182 93.9209 26.4113 94.1084 26.4071C94.2958 26.403 94.4697 26.4016 94.63 26.4016C94.7549 26.4016 94.9628 26.4058 95.2514 26.4141C95.6588 26.4256 96.0387 26.4502 96.3914 26.488C96.6744 26.5113 96.9553 26.5576 97.231 26.6262C97.5364 26.7054 97.8265 26.8357 98.0898 27.0119C98.3623 27.1939 98.5894 27.4381 98.7527 27.7251C98.9282 28.0364 99.0169 28.3905 99.0094 28.7494C99.0091 29.0294 98.9486 29.3059 98.8316 29.5594C98.7005 29.8373 98.5034 30.0776 98.2583 30.2588C97.9453 30.4867 97.5923 30.651 97.2181 30.7426C97.5041 30.9125 97.7569 31.1341 97.9648 31.3964C98.1704 31.6567 98.4923 32.1347 98.9301 32.8305C99.123 33.1414 99.3323 33.4414 99.5575 33.7289C99.6805 33.8964 99.8349 34.0373 100.012 34.1436C100.178 34.2225 100.357 34.2694 100.54 34.2818L100.545 34.8465ZM97.1547 28.7383C97.1884 28.4837 97.1507 28.2246 97.0456 27.991C96.9406 27.7573 96.7725 27.5588 96.5612 27.4183C96.0773 27.1819 95.5436 27.0701 95.0073 27.0927C94.919 27.0927 94.85 27.0927 94.7997 27.0927C94.7495 27.0927 94.6925 27.0927 94.628 27.0927V30.4482H95.0083C95.5336 30.4647 96.0558 30.3618 96.537 30.1468C96.949 29.9446 97.1547 29.4751 97.1547 28.7383Z" fill="white"/>
<path id="Path 33" d="M108.935 34.8466H105.08V34.2819C105.319 34.2925 105.559 34.2692 105.792 34.2128C105.862 34.1932 105.923 34.1489 105.964 34.0878C106.005 34.0266 106.023 33.9526 106.016 33.879C106.014 33.7505 105.99 33.6233 105.944 33.5037L105.557 32.5216H102.904L102.705 33.0614C102.614 33.27 102.557 33.4918 102.535 33.7186C102.522 33.8176 102.543 33.9179 102.594 34.003C102.646 34.088 102.724 34.1525 102.816 34.1859C103.027 34.255 103.248 34.2882 103.47 34.284V34.8486H100.654V34.284C100.853 34.2904 101.049 34.2462 101.227 34.1554C101.416 34.0358 101.571 33.8675 101.676 33.6675C101.858 33.3431 102.013 33.0032 102.138 32.6516L104.497 26.3623H105.07L107.561 32.8451C107.743 33.3058 107.875 33.6161 107.96 33.776C108.039 33.9319 108.16 34.0616 108.309 34.1499C108.504 34.2482 108.72 34.2937 108.937 34.2819L108.935 34.8466ZM105.343 31.9183L104.215 29.0155L103.142 31.9183H105.343Z" fill="white"/>
<path id="Path 34" d="M118.239 27.0867C117.954 27.0697 117.669 27.1101 117.4 27.2056C117.324 27.2361 117.257 27.2839 117.202 27.3453C117.148 27.4067 117.108 27.4799 117.086 27.5594C117.038 27.8097 117.018 28.0648 117.026 28.3197V34.9192H116.471L111.12 28.4482V33.0338C111.111 33.2889 111.133 33.5442 111.184 33.7941C111.207 33.8751 111.249 33.9497 111.305 34.0122C111.361 34.0748 111.429 34.1238 111.506 34.1555C111.774 34.256 112.06 34.2991 112.345 34.282V34.8467H109.304V34.282C109.572 34.2989 109.841 34.2557 110.091 34.1555C110.165 34.1224 110.231 34.0726 110.283 34.01C110.335 33.9474 110.372 33.8736 110.393 33.7941C110.439 33.5436 110.459 33.2886 110.45 33.0338V28.7855C110.45 28.4399 110.441 28.1842 110.423 28.0121C110.409 27.8544 110.365 27.701 110.293 27.5608C110.216 27.4238 110.1 27.3144 109.96 27.2477C109.757 27.155 109.539 27.1 109.317 27.0853V26.5207H111.699L116.356 32.1188V28.3176C116.363 28.0774 116.342 27.8373 116.293 27.6023C116.271 27.5191 116.231 27.4417 116.177 27.3754C116.123 27.3092 116.055 27.2557 115.979 27.2187C115.728 27.1131 115.457 27.067 115.186 27.0839V26.5193H118.239V27.0867Z" fill="white"/>
<path id="Path 35" d="M126.846 28.8855H126.273C126.255 28.4825 126.14 28.0902 125.938 27.7431C125.811 27.5325 125.616 27.3726 125.387 27.2897C125.166 27.229 124.937 27.2 124.708 27.2033H123.671V33.299C123.663 33.4893 123.688 33.6795 123.743 33.8616C123.774 33.9348 123.821 34.0003 123.879 34.0537C123.938 34.1071 124.007 34.1472 124.082 34.1712C124.333 34.2565 124.596 34.294 124.86 34.2818V34.8465H120.759V34.2818C121.098 34.3257 121.441 34.2475 121.729 34.0607C121.896 33.8455 121.973 33.5729 121.946 33.3004V27.2047H121.078C120.792 27.199 120.507 27.2268 120.228 27.2876C119.981 27.3587 119.769 27.5209 119.633 27.7424C119.435 28.0898 119.334 28.4859 119.341 28.8876H118.768V26.5239H126.849L126.846 28.8855Z" fill="white"/>
<path id="Path 36" d="M133.724 32.4588C133.719 32.7395 133.664 33.0168 133.561 33.2771C133.445 33.5801 133.278 33.8606 133.069 34.1065C132.84 34.3782 132.557 34.5977 132.24 34.7506C131.877 34.9227 131.482 35.0078 131.082 34.9994C130.635 34.9965 130.194 34.8984 129.787 34.7112C129.361 34.5192 128.988 34.2238 128.701 33.8508C128.582 34.1189 128.499 34.402 128.454 34.6925H127.898V31.8437H128.454C128.55 32.2429 128.689 32.63 128.869 32.9979C129.048 33.361 129.305 33.6786 129.62 33.9275C129.961 34.1935 130.383 34.3312 130.812 34.3173C131.172 34.3347 131.525 34.2111 131.798 33.9717C131.918 33.8635 132.013 33.73 132.077 33.5806C132.141 33.4312 132.172 33.2694 132.169 33.1064C132.173 32.9277 132.133 32.7507 132.055 32.5908C131.972 32.4367 131.859 32.3018 131.723 32.1948C131.537 32.0514 131.338 31.9258 131.129 31.8195C130.877 31.6873 130.59 31.5472 130.269 31.3993C129.84 31.2014 129.432 30.9608 129.051 30.6813C128.778 30.4838 128.535 30.247 128.329 29.9784C128.182 29.7832 128.067 29.5643 127.99 29.3308C127.927 29.1297 127.895 28.9198 127.895 28.7088C127.899 28.3217 128.001 27.9422 128.192 27.6071C128.397 27.2366 128.696 26.9289 129.058 26.7163C129.457 26.4802 129.913 26.3607 130.376 26.3707C130.754 26.3704 131.128 26.4596 131.467 26.6313C131.811 26.8047 132.117 27.0482 132.365 27.3466C132.455 27.1126 132.522 26.8699 132.564 26.6223H133.132V28.9424H132.564C132.162 27.6776 131.462 27.0452 130.465 27.0452C130.149 27.0295 129.839 27.1336 129.594 27.3376C129.487 27.4297 129.402 27.5451 129.345 27.6753C129.288 27.8055 129.26 27.9471 129.264 28.0895C129.259 28.317 129.331 28.5393 129.468 28.7191C129.617 28.9073 129.802 29.0629 130.012 29.1767C130.234 29.3038 130.594 29.4858 131.093 29.7227C131.577 29.9493 132.05 30.2017 132.508 30.4788C132.844 30.6876 133.137 30.9605 133.371 31.2825C133.612 31.6247 133.736 32.038 133.724 32.4588Z" fill="white"/>
</g>
</g>
</g>
<defs>
<clipPath id="clip0_233_249">
<rect width="177" height="35" fill="white"/>
</clipPath>
</defs>
</svg>
