<svg width="27" height="24" viewBox="0 0 27 24" fill="none" xmlns="http://www.w3.org/2000/svg">
<g id="Inner Plugin Iframe">
<path id="Vector" d="M22.3326 15.5C21.0101 15.5 19.6954 15.3145 18.4348 14.9502C18.0504 14.8501 17.6113 14.8999 17.3369 15.2002L14.9209 17.4C11.7914 15.9502 9.26612 13.65 7.67372 10.7998L10.0897 8.60011C10.3641 8.35012 10.4738 7.95023 10.3641 7.60013C9.92474 6.45023 9.70521 5.25 9.70521 3.99998C9.70521 3.45019 9.21115 3 8.60719 3H4.76404C4.16008 3 3.66602 3.45019 3.66602 3.99998C3.66602 13.3999 12.0113 21 22.3326 21C22.9364 21 23.4307 20.5498 23.4307 20V16.5C23.4307 15.9502 22.9364 15.5 22.3326 15.5Z" fill="#383838"/>
</g>
</svg>
