<svg width="20" height="21" viewBox="0 0 20 21" fill="none" xmlns="http://www.w3.org/2000/svg">
<g id="DeleteIcon Thin">
<path id="Vector (Stroke)" fill-rule="evenodd" clip-rule="evenodd" d="M1.875 5.5C1.875 5.15482 2.15482 4.875 2.5 4.875H17.5C17.8452 4.875 18.125 5.15482 18.125 5.5C18.125 5.84518 17.8452 6.125 17.5 6.125H2.5C2.15482 6.125 1.875 5.84518 1.875 5.5Z" fill="#D34037"/>
<path id="Vector (Stroke)_2" fill-rule="evenodd" clip-rule="evenodd" d="M8.33366 2.79175C8.05739 2.79175 7.79244 2.90149 7.59709 3.09685C7.40174 3.2922 7.29199 3.55715 7.29199 3.83341V4.87508H12.7087V3.83341C12.7087 3.55715 12.5989 3.2922 12.4036 3.09685C12.2082 2.90149 11.9433 2.79175 11.667 2.79175H8.33366ZM13.9587 4.87508V3.83341C13.9587 3.22563 13.7172 2.64273 13.2874 2.21296C12.8577 1.78319 12.2748 1.54175 11.667 1.54175H8.33366C7.72587 1.54175 7.14298 1.78319 6.71321 2.21296C6.28344 2.64273 6.04199 3.22563 6.04199 3.83341V4.87508H4.16699C3.82181 4.87508 3.54199 5.1549 3.54199 5.50008V17.1667C3.54199 17.7745 3.78343 18.3574 4.21321 18.7872C4.64298 19.217 5.22587 19.4584 5.83366 19.4584H14.167C14.7748 19.4584 15.3577 19.217 15.7874 18.7872C16.2172 18.3574 16.4587 17.7745 16.4587 17.1667V5.50008C16.4587 5.1549 16.1788 4.87508 15.8337 4.87508H13.9587ZM4.79199 6.12508V17.1667C4.79199 17.443 4.90174 17.708 5.09709 17.9033C5.29244 18.0987 5.55739 18.2084 5.83366 18.2084H14.167C14.4433 18.2084 14.7082 18.0987 14.9036 17.9033C15.0989 17.708 15.2087 17.443 15.2087 17.1667V6.12508H4.79199Z" fill="#D34037"/>
</g>
</svg>
